# xmcd
#
# Track frame offsets: 
#        182
#        23415
#        47960
#        66455
#        84967
#        106145
#        129075
#        148972
#        169907
#        194757
#
# Disc length: 2938 seconds
#
# Revision: 2
# Processed by: cddbd v1.5.2PL0 Copyright (c) Steve Scherf et al.
# Submitted via: ExactAudioCopy v1.0b3
#
DISCID=8a0b780a
DTITLE=Around The Way - Smooth Is The Way
DYEAR=1993
DGENRE=R&B
TTITLE0=Really Into You
TTITLE1=September
TTITLE2=Groove Me
TTITLE3=Let It Be You
TTITLE4=Check One, Check Two
TTITLE5=Way Back When
TTITLE6=You
TTITLE7=Smooth Is The Way
TTITLE8=The Truth
TTITLE9=Give It Up
EXTD=
EXTT0=
EXTT1=
EXTT2=
EXTT3=
EXTT4=
EXTT5=
EXTT6=
EXTT7=
EXTT8=
EXTT9=
PLAYORDER=
